<svg width="356" height="409" viewBox="0 0 356 409" fill="none" xmlns="http://www.w3.org/2000/svg">
<path d="M292.138 162.95C328.548 116.094 339.49 76.9554 324.523 47.0226C300.93 -0.302126 224.913 -0.191887 215.018 0.0286124H152.644C142.694 -0.191887 66.7321 -0.302126 43.1111 47.0226C28.7786 75.8253 38.2601 112.979 71.3626 157.52C49.3933 174.059 31.5718 195.48 19.3067 220.092C7.04153 244.704 0.66889 271.831 0.692448 299.329C0.692448 397.451 80.2377 409 178.332 409C276.427 409 355.972 397.424 355.972 299.329C356.002 273.304 350.297 247.592 339.264 224.021C328.232 200.45 312.141 179.599 292.138 162.95ZM108.021 298.006C103.101 297.989 98.2954 296.52 94.2064 293.785C90.1174 291.049 86.9266 287.167 85.0336 282.626C83.1551 278.074 82.666 273.068 83.6279 268.239C84.5682 263.407 86.9403 258.97 90.4357 255.505C93.3331 252.658 96.8851 250.567 100.78 249.414C104.674 248.262 108.792 248.083 112.772 248.894C116.752 249.705 120.472 251.48 123.605 254.065C126.738 256.65 129.189 259.964 130.741 263.717C132.294 267.47 132.902 271.547 132.511 275.59C132.12 279.632 130.742 283.517 128.498 286.903C126.255 290.288 123.214 293.072 119.644 295.008C116.073 296.944 112.082 297.973 108.021 298.006ZM248.589 298.006C243.645 298.052 238.8 296.619 234.676 293.891C230.552 291.163 227.337 287.265 225.444 282.697C223.551 278.13 223.066 273.1 224.052 268.255C225.038 263.41 227.449 258.97 230.977 255.505C233.873 252.659 237.424 250.568 241.317 249.416C245.211 248.263 249.327 248.083 253.306 248.893C257.285 249.702 261.004 251.476 264.138 254.059C267.271 256.641 269.722 259.953 271.277 263.704C272.831 267.456 273.441 271.531 273.053 275.573C272.665 279.614 271.29 283.499 269.05 286.886C266.81 290.272 263.773 293.057 260.206 294.996C256.638 296.935 252.649 297.969 248.589 298.006ZM171.221 121.827C148.659 122.716 126.476 127.918 105.871 137.152C81.0646 104.931 71.5003 79.2706 78.7217 64.7728C88.589 44.8727 132.275 39.3051 151.928 39.7736H215.762C235.332 39.2499 278.963 44.7624 288.94 64.7452C296.465 79.8494 285.798 106.916 258.842 140.983C236.088 129.322 211.073 122.739 185.526 121.689" fill="#003162"/>
<path d="M185.471 111.657C185.471 109.562 186.105 108.707 188.035 107.908C193.779 105.649 198.551 101.451 201.524 96.0413C204.497 90.632 205.484 84.3527 204.312 78.2924C203.14 72.232 199.885 66.7728 195.109 62.8615C190.334 58.9502 184.341 56.8333 178.168 56.8781C171.996 56.9229 166.034 59.1265 161.316 63.1067C156.598 67.0869 153.422 72.5928 152.338 78.6695C151.255 84.7462 152.332 91.0106 155.383 96.3762C158.435 101.742 163.268 105.87 169.044 108.046C169.737 108.187 170.35 108.588 170.755 109.168C171.16 109.748 171.327 110.461 171.221 111.161C171.084 114.716 171.056 118.272 171.221 121.827H185.499C185.609 118.437 185.637 115.047 185.471 111.657Z" fill="#003162"/>
</svg>
