<svg width="27" height="27" viewBox="0 0 27 27" fill="none" xmlns="http://www.w3.org/2000/svg">
<path fill-rule="evenodd" clip-rule="evenodd" d="M5.78619 0C4.25198 -1.13129e-07 2.78058 0.60931 1.69552 1.69395C0.610464 2.77859 0.000589174 4.24976 0 5.78397V21.2138C0 22.7484 0.609615 24.2201 1.69474 25.3053C2.77986 26.3904 4.2516 27 5.78619 27H21.216C22.7502 26.9994 24.2214 26.3895 25.3061 25.3045C26.3907 24.2194 27 22.748 27 21.2138V5.78397C26.9994 4.25015 26.3898 2.77931 25.3053 1.69474C24.2207 0.610159 22.7499 0.000588913 21.216 0H5.78619ZM22.8803 5.79286C22.8803 6.23485 22.7048 6.65874 22.3922 6.97127C22.0797 7.28381 21.6558 7.45939 21.2138 7.45939C20.7718 7.45939 20.3479 7.28381 20.0354 6.97127C19.7229 6.65874 19.5473 6.23485 19.5473 5.79286C19.5473 5.35087 19.7229 4.92698 20.0354 4.61444C20.3479 4.30191 20.7718 4.12633 21.2138 4.12633C21.6558 4.12633 22.0797 4.30191 22.3922 4.61444C22.7048 4.92698 22.8803 5.35087 22.8803 5.79286ZM13.5033 8.87705C12.2775 8.87705 11.102 9.36399 10.2352 10.2308C9.36844 11.0975 8.88149 12.2731 8.88149 13.4989C8.88149 14.7247 9.36844 15.9003 10.2352 16.767C11.102 17.6338 12.2775 18.1207 13.5033 18.1207C14.7291 18.1207 15.9047 17.6338 16.7715 16.767C17.6382 15.9003 18.1252 14.7247 18.1252 13.4989C18.1252 12.2731 17.6382 11.0975 16.7715 10.2308C15.9047 9.36399 14.7291 8.87705 13.5033 8.87705ZM6.65723 13.4989C6.65723 11.6838 7.37828 9.94301 8.66176 8.65953C9.94523 7.37606 11.686 6.65501 13.5011 6.65501C15.3162 6.65501 17.057 7.37606 18.3405 8.65953C19.6239 9.94301 20.345 11.6838 20.345 13.4989C20.345 15.314 19.6239 17.0548 18.3405 18.3382C17.057 19.6217 15.3162 20.3428 13.5011 20.3428C11.686 20.3428 9.94523 19.6217 8.66176 18.3382C7.37828 17.0548 6.65723 15.314 6.65723 13.4989Z" fill="#FCFCFC"/>
</svg>
