<svg width="25" height="19" viewBox="0 0 25 19" fill="none" xmlns="http://www.w3.org/2000/svg">
<path id="Vector" d="M25 3.71044C25 4.13692 24.8495 4.49944 24.5484 4.79798L12.871 16.3771L10.6774 18.5522C10.3763 18.8507 10.0108 19 9.58064 19C9.15054 19 8.78495 18.8507 8.48387 18.5522L6.29032 16.3771L0.451613 10.5875C0.150538 10.289 0 9.92649 0 9.5C0 9.07351 0.150538 8.711 0.451613 8.41246L2.64516 6.23737C2.94624 5.93883 3.31183 5.78956 3.74194 5.78956C4.17204 5.78956 4.53763 5.93883 4.83871 6.23737L9.58064 10.9554L20.1613 0.447811C20.4624 0.14927 20.828 0 21.2581 0C21.6882 0 22.0538 0.14927 22.3548 0.447811L24.5484 2.6229C24.8495 2.92144 25 3.28395 25 3.71044Z" fill="#003162" fill-opacity="0.5"/>
</svg>
