<svg width="457" height="526" viewBox="0 0 457 526" fill="none" xmlns="http://www.w3.org/2000/svg">
<path d="M374.948 209.451C421.749 149.224 435.813 98.916 416.576 60.4413C386.25 -0.388344 288.54 -0.246646 275.821 0.0367775H195.648C182.859 -0.246646 85.2193 -0.388344 54.8576 60.4413C36.4351 97.4634 48.6223 145.22 91.1712 202.472C62.9326 223.73 40.0254 251.264 24.2602 282.899C8.49498 314.534 0.303788 349.402 0.334068 384.748C0.334068 510.871 102.579 525.716 228.667 525.716C354.755 525.716 456.999 510.836 456.999 384.748C457.037 351.296 449.705 318.246 435.524 287.949C421.342 257.651 400.66 230.85 374.948 209.451ZM138.29 383.048C131.966 383.025 125.79 381.138 120.534 377.621C115.278 374.105 111.177 369.116 108.743 363.279C106.329 357.428 105.7 350.993 106.937 344.785C108.145 338.575 111.194 332.872 115.687 328.418C119.411 324.759 123.977 322.071 128.983 320.589C133.989 319.108 139.282 318.878 144.398 319.92C149.513 320.963 154.295 323.245 158.322 326.567C162.349 329.889 165.499 334.149 167.495 338.973C169.491 343.797 170.272 349.038 169.769 354.234C169.266 359.43 167.495 364.424 164.612 368.776C161.728 373.128 157.82 376.705 153.23 379.193C148.641 381.682 143.511 383.005 138.29 383.048ZM318.972 383.048C312.617 383.106 306.389 381.264 301.089 377.758C295.788 374.252 291.655 369.242 289.222 363.37C286.789 357.499 286.166 351.034 287.434 344.807C288.701 338.579 291.8 332.872 296.334 328.418C300.057 324.76 304.621 322.073 309.626 320.591C314.63 319.109 319.922 318.878 325.036 319.919C330.15 320.959 334.931 323.24 338.958 326.559C342.986 329.878 346.137 334.136 348.135 338.957C350.133 343.779 350.916 349.017 350.417 354.212C349.918 359.407 348.152 364.401 345.273 368.754C342.394 373.107 338.49 376.687 333.904 379.179C329.319 381.671 324.191 382.999 318.972 383.048ZM219.526 156.593C190.526 157.735 162.012 164.421 135.527 176.29C103.642 134.875 91.3483 101.892 100.63 83.2569C113.314 57.678 169.467 50.5215 194.727 51.1238H276.778C301.932 50.4506 358.014 57.5362 370.839 83.2214C380.511 102.636 366.8 137.426 332.152 181.215C302.904 166.227 270.751 157.765 237.913 156.415" fill="#FF8E2B" fill-opacity="0.5"/>
<path d="M237.842 143.52C237.842 140.827 238.657 139.729 241.137 138.702C248.521 135.798 254.655 130.401 258.477 123.448C262.298 116.495 263.566 108.424 262.06 100.634C260.554 92.8447 256.369 85.8276 250.231 80.8001C244.093 75.7726 236.389 73.0517 228.456 73.1093C220.522 73.1669 212.858 75.9993 206.794 81.1153C200.73 86.2314 196.647 93.3084 195.254 101.119C193.861 108.93 195.246 116.982 199.168 123.879C203.09 130.776 209.302 136.082 216.727 138.879C217.618 139.059 218.406 139.576 218.927 140.321C219.448 141.066 219.662 141.983 219.526 142.882C219.349 147.452 219.313 152.023 219.526 156.593H237.878C238.019 152.235 238.055 147.877 237.842 143.52Z" fill="#FF8E2B" fill-opacity="0.5"/>
</svg>
